<svg width="511" height="512" viewBox="0 0 511 512" fill="none" xmlns="http://www.w3.org/2000/svg">
<path d="M496.788 212.577C435.889 335.996 335.994 435.89 212.575 496.788C184.957 510.415 153.764 515.048 123.378 510.034C92.9913 505.021 64.9391 490.614 43.1623 468.837C26.6048 452.28 14.2313 432.015 7.06701 409.722C-0.0972842 387.429 -1.84611 363.75 1.96544 340.646C5.777 317.543 15.0392 295.68 28.9846 276.87C42.93 258.06 61.1571 242.843 82.1556 232.482C147.429 200.274 200.262 147.442 232.47 82.1682C242.83 61.1673 258.047 42.9378 276.857 28.9902C295.668 15.0427 317.532 5.77882 340.637 1.96624C363.742 -1.84633 387.423 -0.0978054 409.718 7.06693C432.013 14.2317 452.279 26.6063 468.837 43.1654C490.614 64.942 505.021 92.994 510.034 123.38C515.048 153.766 510.415 184.96 496.788 212.577Z" fill="#0FC3DB" fill-opacity="0.4"/>
</svg>
