<svg width="855" height="650" viewBox="0 0 855 650" fill="none" xmlns="http://www.w3.org/2000/svg">
<g id="cloud_architecture 1" clip-path="url(#clip0)">
<rect width="855" height="650" fill="white"/>
<g id="big_doc">
<path id="Vector" d="M546.789 152.069H407.211C403.178 152.065 399.312 150.371 396.46 147.361C393.609 144.351 392.005 140.27 392 136.012V16.057C392.005 11.7999 393.609 7.71851 396.46 4.70828C399.312 1.69804 403.178 0.00479242 407.211 0H546.789C550.822 0.00479242 554.688 1.69804 557.54 4.70828C560.391 7.71851 561.995 11.7999 562 16.057V136.012C561.995 140.27 560.391 144.351 557.54 147.361C554.688 150.371 550.822 152.065 546.789 152.069V152.069ZM407.211 1.88906C403.652 1.89331 400.241 3.38737 397.725 6.04345C395.209 8.69954 393.793 12.3007 393.789 16.057V136.012C393.793 139.769 395.209 143.37 397.725 146.026C400.241 148.682 403.652 150.176 407.211 150.18H546.789C550.348 150.176 553.759 148.682 556.275 146.026C558.791 143.37 560.206 139.769 560.211 136.012V16.057C560.206 12.3007 558.791 8.69954 556.275 6.04345C553.759 3.38737 550.348 1.89331 546.789 1.88906H407.211Z" fill="#3F3D56"/>
<path id="Path 411" d="M530.924 36.0225H460.481C459.862 36.0358 459.261 35.8004 458.8 35.364C458.339 34.9276 458.052 34.3226 457.997 33.6715C457.98 33.3345 458.028 32.9973 458.139 32.6805C458.249 32.3637 458.419 32.0739 458.639 31.8289C458.859 31.5839 459.124 31.3888 459.418 31.2555C459.711 31.1221 460.028 31.0534 460.348 31.0533H532.055C534.417 33.2447 532.978 36.0225 530.924 36.0225L530.924 36.0225Z" fill="#CCCCCC"/>
<path id="Path 412" d="M530.924 49.0665H460.481C459.862 49.0797 459.261 48.8444 458.8 48.4079C458.339 47.9715 458.052 47.3666 457.997 46.7155C457.98 46.3784 458.028 46.0412 458.139 45.7245C458.249 45.4077 458.419 45.1179 458.639 44.8729C458.859 44.6279 459.124 44.4328 459.418 44.2995C459.711 44.1661 460.028 44.0973 460.348 44.0973H532.055C534.417 46.2886 532.978 49.0665 530.924 49.0665H530.924Z" fill="#CCCCCC"/>
<path id="Path 413" d="M445.253 56.4933H423.754C423.052 56.4926 422.379 56.1979 421.883 55.6739C421.386 55.1499 421.107 54.4395 421.106 53.6985V26.9163C421.107 26.1753 421.386 25.4648 421.883 24.9409C422.379 24.4169 423.052 24.1222 423.754 24.1214H445.253C445.954 24.1224 446.627 24.4172 447.124 24.9411C447.62 25.4651 447.899 26.1754 447.9 26.9163V53.6985C447.899 54.4395 447.62 55.1499 447.124 55.6739C446.627 56.1979 445.955 56.4926 445.253 56.4933V56.4933Z" fill="#0FC3DB"/>
<path id="Path 414" d="M530.72 75.774H423.21C422.591 75.7873 421.99 75.5519 421.529 75.1155C421.068 74.6791 420.781 74.0742 420.726 73.4231C420.709 73.086 420.757 72.7488 420.867 72.432C420.978 72.1152 421.148 71.8255 421.368 71.5805C421.588 71.3355 421.853 71.1404 422.147 71.007C422.44 70.8737 422.757 70.8049 423.077 70.8049H531.851C534.213 72.9962 532.774 75.7741 530.72 75.7741V75.774Z" fill="#CCCCCC"/>
<path id="Path 415" d="M530.72 88.8218H423.21C422.591 88.835 421.99 88.5997 421.529 88.1632C421.068 87.7268 420.781 87.1219 420.726 86.4708C420.709 86.1337 420.757 85.7965 420.867 85.4797C420.978 85.163 421.148 84.8732 421.368 84.6282C421.588 84.3832 421.853 84.1881 422.147 84.0547C422.44 83.9214 422.757 83.8526 423.076 83.8526H531.851C534.213 86.0439 532.774 88.8218 530.72 88.8218V88.8218Z" fill="#CCCCCC"/>
<path id="Path 416" d="M530.72 101.861H423.21C422.591 101.874 421.99 101.639 421.529 101.202C421.068 100.766 420.781 100.161 420.726 99.51C420.709 99.173 420.757 98.8358 420.867 98.519C420.978 98.2022 421.148 97.9124 421.368 97.6674C421.588 97.4224 421.853 97.2273 422.147 97.094C422.44 96.9606 422.757 96.8919 423.077 96.8918H531.851C534.213 99.0832 532.774 101.861 530.72 101.861V101.861Z" fill="#CCCCCC"/>
<path id="Path 417" d="M530.72 114.908H423.21C422.591 114.921 421.99 114.686 421.529 114.249C421.068 113.813 420.781 113.208 420.726 112.557C420.709 112.22 420.757 111.883 420.867 111.566C420.978 111.249 421.148 110.959 421.368 110.714C421.588 110.469 421.853 110.274 422.147 110.141C422.44 110.007 422.757 109.939 423.077 109.939H531.851C534.213 112.13 532.774 114.908 530.72 114.908V114.908Z" fill="#CCCCCC"/>
<path id="Path 418" d="M530.72 127.948H423.21C422.591 127.961 421.99 127.726 421.529 127.29C421.068 126.853 420.781 126.248 420.726 125.597C420.709 125.26 420.757 124.923 420.867 124.606C420.978 124.289 421.148 124 421.368 123.755C421.588 123.509 421.853 123.314 422.147 123.181C422.44 123.048 422.757 122.979 423.077 122.979H531.851C534.213 125.17 532.774 127.948 530.72 127.948V127.948Z" fill="#CCCCCC"/>
</g>
<g id="mid_doc">
<path id="Vector_2" d="M842.052 369H738.645C735.415 368.996 732.318 367.706 730.034 365.413C727.75 363.119 726.465 360.009 726.462 356.766V272.234C726.465 268.99 727.75 265.881 730.034 263.587C732.318 261.294 735.415 260.004 738.645 260H842.052C845.282 260.004 848.379 261.294 850.663 263.587C852.947 265.881 854.232 268.99 854.236 272.234V356.766C854.232 360.01 852.947 363.119 850.663 365.413C848.379 367.706 845.282 368.996 842.052 369V369ZM738.645 261.838C735.9 261.841 733.269 262.937 731.328 264.886C729.387 266.835 728.295 269.478 728.292 272.234V356.766C728.295 359.522 729.387 362.165 731.328 364.114C733.269 366.063 735.9 367.159 738.645 367.162H842.052C844.797 367.159 847.429 366.063 849.37 364.114C851.311 362.165 852.403 359.522 852.406 356.766V272.234C852.403 269.478 851.311 266.835 849.37 264.886C847.429 262.937 844.797 261.841 842.052 261.838L738.645 261.838Z" fill="#3F3D56"/>
<path id="Path 411_2" d="M830.299 286.304H778.111C777.652 286.313 777.207 286.147 776.865 285.84C776.524 285.532 776.311 285.106 776.271 284.647C776.258 284.409 776.294 284.172 776.375 283.949C776.457 283.725 776.583 283.521 776.746 283.348C776.909 283.176 777.105 283.038 777.323 282.944C777.541 282.85 777.775 282.802 778.012 282.802H831.136C832.886 284.346 831.82 286.304 830.298 286.304L830.299 286.304Z" fill="#CCCCCC"/>
<path id="Path 412_2" d="M830.299 295.496H778.111C777.652 295.505 777.207 295.339 776.865 295.032C776.524 294.724 776.311 294.298 776.271 293.839C776.258 293.601 776.294 293.364 776.375 293.141C776.457 292.917 776.583 292.713 776.746 292.54C776.909 292.368 777.105 292.23 777.323 292.136C777.541 292.042 777.775 291.994 778.012 291.994H831.136C832.886 293.538 831.82 295.496 830.298 295.496L830.299 295.496Z" fill="#CCCCCC"/>
<path id="Path 413_2" d="M766.829 300.729H750.902C750.381 300.729 749.883 300.521 749.515 300.152C749.147 299.783 748.941 299.282 748.94 298.76V279.887C748.941 279.364 749.147 278.864 749.515 278.495C749.883 278.125 750.381 277.918 750.902 277.917H766.829C767.349 277.918 767.847 278.126 768.215 278.495C768.583 278.864 768.789 279.364 768.79 279.887V298.76C768.79 299.282 768.583 299.783 768.215 300.152C767.847 300.521 767.349 300.729 766.829 300.729V300.729Z" fill="#0FC3DB"/>
<path id="Path 414_2" d="M830.147 314.316H750.498C750.04 314.326 749.595 314.16 749.253 313.852C748.912 313.545 748.699 313.118 748.659 312.66C748.646 312.422 748.681 312.184 748.763 311.961C748.845 311.738 748.971 311.534 749.134 311.361C749.297 311.188 749.493 311.051 749.711 310.957C749.928 310.863 750.163 310.815 750.4 310.815H830.985C832.735 312.359 831.668 314.316 830.147 314.316V314.316Z" fill="#CCCCCC"/>
<path id="Path 415_2" d="M830.147 323.511H750.498C750.04 323.52 749.595 323.354 749.253 323.047C748.912 322.739 748.699 322.313 748.659 321.854C748.646 321.617 748.681 321.379 748.763 321.156C748.845 320.933 748.971 320.728 749.134 320.556C749.297 320.383 749.493 320.246 749.711 320.152C749.928 320.058 750.163 320.009 750.4 320.009H830.985C832.735 321.553 831.668 323.511 830.147 323.511V323.511Z" fill="#CCCCCC"/>
<path id="Path 416_2" d="M830.147 332.7H750.498C750.04 332.709 749.595 332.543 749.253 332.235C748.912 331.928 748.699 331.502 748.659 331.043C748.646 330.805 748.681 330.568 748.763 330.344C748.845 330.121 748.971 329.917 749.134 329.744C749.297 329.572 749.493 329.434 749.711 329.34C749.928 329.246 750.163 329.198 750.4 329.198H830.985C832.735 330.742 831.668 332.7 830.147 332.7V332.7Z" fill="#CCCCCC"/>
<path id="Path 417_2" d="M830.147 341.894H750.498C750.04 341.903 749.595 341.737 749.253 341.429C748.912 341.122 748.699 340.696 748.659 340.237C748.646 339.999 748.681 339.762 748.763 339.538C748.845 339.315 748.971 339.111 749.134 338.938C749.297 338.766 749.493 338.628 749.711 338.534C749.928 338.44 750.163 338.392 750.4 338.392H830.985C832.735 339.936 831.668 341.893 830.147 341.893V341.894Z" fill="#CCCCCC"/>
<path id="Path 418_2" d="M830.147 351.083H750.498C750.04 351.092 749.595 350.926 749.253 350.619C748.912 350.311 748.699 349.885 748.659 349.426C748.646 349.189 748.681 348.951 748.763 348.728C748.845 348.505 748.971 348.3 749.134 348.128C749.297 347.955 749.493 347.818 749.711 347.724C749.928 347.63 750.163 347.581 750.4 347.581H830.985C832.735 349.125 831.668 351.083 830.147 351.083V351.083Z" fill="#CCCCCC"/>
</g>
<g id="small_doc">
<path id="Vector_3" d="M585.619 336.141H520.059C517.923 336.138 515.874 335.329 514.363 333.891C512.852 332.453 512.002 330.503 512 328.47V277.671C512.002 275.637 512.852 273.687 514.363 272.249C515.874 270.811 517.923 270.002 520.059 270H585.619C587.755 270.002 589.804 270.811 591.315 272.249C592.826 273.687 593.676 275.637 593.678 277.671V328.47C593.676 330.503 592.826 332.453 591.315 333.891C589.804 335.329 587.755 336.138 585.619 336.141V336.141ZM520.059 271.742C518.408 271.744 516.825 272.369 515.657 273.48C514.489 274.592 513.832 276.099 513.83 277.671V328.47C513.832 330.042 514.489 331.549 515.657 332.66C516.825 333.772 518.408 334.397 520.059 334.399H585.619C587.27 334.397 588.853 333.772 590.021 332.66C591.189 331.549 591.846 330.042 591.848 328.47V277.671C591.846 276.099 591.189 274.592 590.021 273.48C588.853 272.369 587.27 271.744 585.619 271.742H520.059Z" fill="#3F3D56"/>
<path id="Vector_4" d="M575.259 308.514H530.419C529.327 308.514 528.28 308.101 527.507 307.366C526.735 306.631 526.301 305.634 526.301 304.595C526.301 303.555 526.735 302.558 527.507 301.823C528.28 301.088 529.327 300.675 530.419 300.675H575.259C576.351 300.675 577.399 301.088 578.171 301.823C578.943 302.558 579.377 303.555 579.377 304.595C579.377 305.634 578.943 306.631 578.171 307.366C577.399 308.101 576.351 308.514 575.259 308.514V308.514Z" fill="#0FC3DB"/>
<path id="Vector_5" d="M566.108 292.401H539.57C538.478 292.401 537.431 291.988 536.658 291.253C535.886 290.518 535.452 289.521 535.452 288.481C535.452 287.442 535.886 286.445 536.658 285.71C537.431 284.975 538.478 284.562 539.57 284.562H566.108C567.2 284.562 568.248 284.975 569.02 285.71C569.792 286.445 570.226 287.442 570.226 288.481C570.226 289.521 569.792 290.518 569.02 291.253C568.248 291.988 567.2 292.401 566.108 292.401Z" fill="#0FC3DB"/>
<path id="Vector_6" d="M575.259 321.579H530.419C529.327 321.579 528.28 321.166 527.507 320.431C526.735 319.696 526.301 318.699 526.301 317.659C526.301 316.62 526.735 315.623 527.507 314.888C528.28 314.153 529.327 313.74 530.419 313.74H575.259C576.351 313.74 577.399 314.153 578.171 314.888C578.943 315.623 579.377 316.62 579.377 317.659C579.377 318.699 578.943 319.696 578.171 320.431C577.399 321.166 576.351 321.579 575.259 321.579V321.579Z" fill="#0FC3DB"/>
</g>
<path id="Vector_7" d="M95.9179 474.536C95.2262 473.238 94.8272 471.805 94.7492 470.337C94.6712 468.869 94.916 467.402 95.4664 466.039C96.0168 464.676 96.8594 463.45 97.9349 462.447C99.0103 461.445 100.292 460.691 101.691 460.238L102.428 424.51L117.716 435.051L114.672 467.362C115.278 469.762 114.982 472.301 113.841 474.497C112.7 476.693 110.793 478.395 108.481 479.279C106.17 480.163 103.614 480.169 101.298 479.295C98.9828 478.42 97.0684 476.727 95.9179 474.536H95.9179Z" fill="#A0616A"/>
<path id="Vector_8" d="M112.823 336.965L97.8582 449.479L115.873 450.159L130.929 332.047L127.315 329.915C125.941 329.104 124.386 328.646 122.792 328.582C121.197 328.518 119.611 328.85 118.176 329.548C116.74 330.246 115.5 331.289 114.566 332.584C113.632 333.878 113.033 335.383 112.823 336.965V336.965Z" fill="#0FC3DB"/>
<path id="Vector_9" d="M160.585 638.485L172.844 638.484L178.677 591.196L160.582 591.197L160.585 638.485Z" fill="#A0616A"/>
<path id="Vector_10" d="M196.488 649.867L157.957 649.869L157.957 634.982L181.601 634.981C185.549 634.981 189.335 636.549 192.127 639.341C194.919 642.133 196.488 645.919 196.488 649.867V649.867Z" fill="#2F2E41"/>
<path id="Vector_11" d="M58.5815 623.833L69.7065 628.983L94.8665 588.522L78.4465 580.921L58.5815 623.833Z" fill="#A0616A"/>
<path id="Vector_12" d="M86.3803 649.247L51.4147 633.061L57.6687 619.551L79.1249 629.484C82.7078 631.143 85.4851 634.157 86.8458 637.863C88.2064 641.569 88.039 645.665 86.3803 649.247V649.247V649.247Z" fill="#2F2E41"/>
<path id="Vector_13" d="M173.437 628.493C173.257 628.493 173.078 628.483 172.9 628.462L163.2 627.321C162.18 627.196 161.232 626.728 160.514 625.993C159.795 625.259 159.348 624.301 159.246 623.279L147.603 501.137C147.572 500.818 147.44 500.518 147.227 500.279C147.013 500.04 146.728 499.876 146.414 499.811C146.1 499.746 145.774 499.783 145.483 499.917C145.192 500.051 144.951 500.275 144.796 500.555L80.0153 617.922C79.5282 618.81 78.7545 619.507 77.8204 619.9C76.8862 620.292 75.8467 620.357 74.8712 620.083L63.9749 617.056C63.3867 616.893 62.8379 616.612 62.3618 616.23C61.8857 615.848 61.4922 615.373 61.2055 614.835C60.9188 614.296 60.7448 613.704 60.694 613.096C60.6432 612.488 60.7168 611.876 60.9102 611.297C70.3999 582.903 117.944 440.597 122.009 427.499C126.866 411.848 163.123 405.681 166.248 405.179L168.042 403.384L168.388 403.848C184.391 425.392 192.135 453.924 190.193 484.19L190.192 484.201L177.908 624.386C177.81 625.505 177.297 626.547 176.469 627.307C175.642 628.067 174.56 628.49 173.437 628.493V628.493Z" fill="#2F2E41"/>
<path id="Vector_14" d="M123.59 423.736L109.017 347.774C107.797 341.357 109.062 334.716 112.556 329.197C116.049 323.678 121.509 319.693 127.831 318.05C131.738 317.034 135.848 317.102 139.718 318.248C143.589 319.393 147.074 321.573 149.799 324.552C157.238 332.672 166.687 344.49 169.459 354.676C171.806 363.322 178.41 395.721 178.476 396.047L178.529 396.304L178.346 396.494C178.311 396.53 174.773 400.187 169.265 404.751C166.033 407.43 162.73 409.916 159.447 412.141C150.229 418.365 125.147 423.425 124.084 423.637L123.59 423.736Z" fill="#0FC3DB"/>
<path id="Vector_15" opacity="0.2" d="M159.166 411.727C162.826 409.247 166.147 406.687 168.946 404.367C167.937 389.427 145.926 358.147 137.006 358.147C137.006 358.147 134.896 406.357 159.166 411.727Z" fill="black"/>
<path id="Vector_16" d="M204.47 450.964C203.088 450.463 201.833 449.665 200.793 448.626C199.752 447.588 198.953 446.333 198.449 444.952C197.946 443.571 197.752 442.096 197.881 440.631C198.009 439.167 198.457 437.749 199.193 436.476L175.835 409.433L194.249 407.036L213.608 433.084C215.664 434.462 217.143 436.547 217.764 438.942C218.386 441.338 218.107 443.879 216.981 446.083C215.855 448.287 213.959 450.001 211.653 450.901C209.347 451.8 206.792 451.823 204.47 450.964H204.47Z" fill="#A0616A"/>
<path id="Vector_17" d="M142.828 317.922C143.842 318.007 144.846 318.187 145.826 318.459C147.809 319.046 149.615 320.116 151.082 321.573C152.549 323.03 153.632 324.829 154.233 326.807L179.237 388.842L208.087 423.737L191.828 435.231L145.709 388.22L129.543 333.807C129.041 331.847 129.012 329.796 129.459 327.823C129.906 325.85 130.816 324.011 132.114 322.459C133.412 320.907 135.061 319.686 136.924 318.897C138.787 318.108 140.811 317.774 142.828 317.922V317.922Z" fill="#0FC3DB"/>
<g id="head">
<path id="Vector_18" d="M133.876 311.679C146.905 307.903 154.406 294.281 150.631 281.252C146.856 268.224 133.234 260.722 120.205 264.497C107.176 268.272 99.6745 281.895 103.45 294.923C107.225 307.952 120.847 315.454 133.876 311.679Z" fill="#A0616A"/>
<path id="Vector_19" d="M132.417 311.866C127.603 307.813 122.934 301.612 125.245 295.76C127.526 289.982 134.925 288.592 139.908 284.884C146.849 279.72 148.714 269.267 144.933 261.486C141.152 253.704 132.611 248.82 123.975 248.312C115.338 247.803 106.768 251.266 100.026 256.687C91.7261 263.36 85.8345 273.324 85.2344 283.957C84.6342 294.59 89.8066 305.65 99.0006 311.025C108.858 316.787 121.326 315.472 132.255 312.166" fill="#2F2E41"/>
<path id="Vector_20" d="M87.3119 294.784C87.9068 300.433 82.8996 305.19 77.6797 307.429C72.4598 309.668 66.6101 310.431 61.7474 313.367C53.1747 318.541 49.6355 329.253 48.872 339.238C48.1085 349.222 49.4293 359.376 47.5271 369.207C45.625 379.039 39.314 389.048 29.4976 391.025C32.7449 395.208 37.2038 398.287 42.2658 399.843C47.3278 401.398 52.7465 401.354 57.7824 399.716C62.8184 398.078 67.2263 394.926 70.4049 390.691C73.5835 386.455 75.3779 381.342 75.5432 376.049C75.9146 364.159 68.1168 352.367 71.4854 340.959C73.3494 334.645 78.3252 329.808 83.1895 325.373C88.0538 320.937 93.1779 316.347 95.518 310.194C97.8581 304.041 96.3069 295.845 90.3902 292.96" fill="#2F2E41"/>
</g>
<g id="spiral">
<path id="Vector_21" d="M622.684 473C553.697 473 491.355 423.491 475.857 350.993C461.509 283.878 502.618 217.2 567.495 202.357C579.88 199.524 592.682 199.242 605.172 201.527C617.662 203.812 629.595 208.62 640.288 215.675C650.982 222.731 660.228 231.896 667.498 242.649C674.767 253.401 679.919 265.529 682.657 278.34C687.069 299.086 683.345 320.796 672.303 338.705C661.261 356.615 643.803 369.262 623.759 373.873C609.91 376.983 595.451 375.128 582.756 368.615C570.06 362.101 559.883 351.316 553.896 338.029C553.845 337.916 553.816 337.794 553.811 337.669C553.806 337.545 553.825 337.421 553.866 337.304C553.908 337.187 553.971 337.08 554.053 336.988C554.135 336.897 554.233 336.823 554.342 336.771C554.452 336.719 554.57 336.69 554.69 336.685C554.81 336.68 554.93 336.7 555.043 336.744C555.156 336.787 555.259 336.853 555.347 336.938C555.435 337.023 555.506 337.125 555.556 337.239C561.367 350.135 571.245 360.604 583.567 366.926C595.889 373.247 609.923 375.046 623.364 372.027C642.936 367.525 659.982 355.176 670.763 337.689C681.545 320.202 685.181 299.005 680.873 278.748C675.446 253.364 660.494 231.249 639.305 217.269C618.117 203.289 592.428 198.59 567.89 204.203C537.176 211.268 510.425 230.647 493.506 258.089C476.587 285.532 470.882 318.796 477.641 350.585C495.331 433.333 574.798 485.766 654.79 467.466C681.218 461.439 706.053 449.508 727.556 432.51C749.06 415.512 766.712 393.858 779.276 369.062C779.332 368.952 779.408 368.854 779.5 368.774C779.592 368.695 779.699 368.635 779.814 368.597C779.928 368.56 780.049 368.547 780.169 368.558C780.289 368.57 780.405 368.605 780.511 368.663C780.618 368.721 780.712 368.8 780.789 368.895C780.866 368.991 780.924 369.101 780.959 369.22C780.995 369.339 781.007 369.464 780.996 369.588C780.985 369.712 780.95 369.832 780.894 369.942C768.206 394.981 750.38 416.848 728.666 434.013C706.951 451.178 681.872 463.225 655.185 469.312C644.513 471.759 633.615 472.996 622.684 473V473Z" fill="#E6E6E6"/>
<path id="Vector_22" d="M800.084 260C799.858 260 799.641 259.913 799.473 259.757C799.305 259.601 799.199 259.386 799.175 259.154C798.431 252.001 797.305 244.896 795.803 237.871C771.908 126.115 674.393 46.6108 563.933 48.9346C563.691 48.9395 563.456 48.8446 563.281 48.6707C563.106 48.4968 563.005 48.2581 563 48.0072C562.995 47.7562 563.087 47.5135 563.255 47.3325C563.423 47.1515 563.654 47.047 563.897 47.0419C618.114 46.0005 671.01 64.3953 713.606 99.1042C756.203 133.813 785.876 182.698 797.59 237.462C799.106 244.556 800.243 251.73 800.995 258.953C801.008 259.076 800.997 259.201 800.963 259.321C800.929 259.44 800.873 259.551 800.797 259.648C800.722 259.744 800.629 259.825 800.523 259.884C800.418 259.944 800.302 259.981 800.183 259.994C800.15 259.998 800.117 260 800.084 260Z" fill="#E6E6E6"/>
<path id="Vector_23" d="M295.844 415C295.636 415 295.434 414.926 295.272 414.791C295.11 414.656 294.997 414.468 294.952 414.258C283.448 360.583 286.262 304.68 303.09 252.533C319.919 200.387 350.13 153.963 390.487 118.232C390.578 118.15 390.684 118.088 390.798 118.048C390.912 118.009 391.033 117.993 391.153 118.003C391.273 118.012 391.391 118.045 391.498 118.102C391.606 118.158 391.702 118.236 391.78 118.33C391.858 118.425 391.918 118.535 391.955 118.654C391.992 118.772 392.007 118.897 391.997 119.022C391.987 119.146 391.954 119.267 391.899 119.378C391.844 119.489 391.769 119.588 391.677 119.669C351.571 155.177 321.549 201.312 304.825 253.133C288.101 304.954 285.305 360.509 296.737 413.849C296.767 413.988 296.766 414.131 296.735 414.269C296.704 414.407 296.643 414.536 296.557 414.647C296.471 414.757 296.363 414.846 296.239 414.908C296.116 414.969 295.981 415 295.844 415Z" fill="#E6E6E6"/>
<path id="Vector_24" d="M314 239C321.18 239 327 233.18 327 226C327 218.82 321.18 213 314 213C306.82 213 301 218.82 301 226C301 233.18 306.82 239 314 239Z" fill="#E6E6E6"/>
<path id="Vector_25" d="M295 425C302.18 425 308 419.18 308 412C308 404.82 302.18 399 295 399C287.82 399 282 404.82 282 412C282 419.18 287.82 425 295 425Z" fill="#E6E6E6"/>
<path id="Vector_26" d="M721.5 123C728.404 123 734 117.18 734 110C734 102.82 728.404 97 721.5 97C714.596 97 709 102.82 709 110C709 117.18 714.596 123 721.5 123Z" fill="#E6E6E6"/>
<path id="Vector_27" d="M581.5 480C588.404 480 594 474.18 594 467C594 459.82 588.404 454 581.5 454C574.596 454 569 459.82 569 467C569 474.18 574.596 480 581.5 480Z" fill="#E6E6E6"/>
</g>
</g>
<defs>
<clipPath id="clip0">
<rect width="855" height="650" fill="white"/>
</clipPath>
</defs>
</svg>
